<?xml version="1.0" standalone="no"?>
<!DOCTYPE svg PUBLIC "-//W3C//DTD SVG 20010904//EN"
 "http://www.w3.org/TR/2001/REC-SVG-20010904/DTD/svg10.dtd">
<svg version="1.0" xmlns="http://www.w3.org/2000/svg"
 width="1024.000000pt" height="1024.000000pt" viewBox="0 0 1024.000000 1024.000000"
 preserveAspectRatio="xMidYMid meet">

<g transform="translate(0.000000,1024.000000) scale(0.100000,-0.100000)"
fill="#000000" stroke="none">
<path d="M4945 9730 c-738 -46 -1409 -328 -1959 -825 -770 -695 -1135 -1749
-965 -2785 38 -228 124 -531 220 -772 114 -286 413 -804 792 -1373 317 -475
597 -873 1362 -1935 232 -322 459 -638 505 -704 103 -146 120 -158 220 -154
97 4 119 19 206 146 37 53 264 372 504 707 1189 1664 1303 1829 1674 2425 200
321 419 722 487 890 79 199 171 512 209 715 47 256 64 612 40 856 -50 497
-224 977 -510 1404 -335 499 -804 897 -1338 1134 -451 201 -981 300 -1447 271z
m258 -297 c-34 -2 -93 -2 -130 0 -37 2 -9 3 62 3 72 0 102 -1 68 -3z m-250
-10 c-18 -2 -48 -2 -65 0 -18 2 -4 4 32 4 36 0 50 -2 33 -4z m425 0 c-15 -2
-42 -2 -60 0 -18 2 -6 4 27 4 33 0 48 -2 33 -4z m-555 -10 c-13 -2 -33 -2 -45
0 -13 2 -3 4 22 4 25 0 35 -2 23 -4z m655 0 c-10 -2 -28 -2 -40 0 -13 2 -5 4
17 4 22 1 32 -1 23 -4z m-740 -10 c-10 -2 -28 -2 -40 0 -13 2 -5 4 17 4 22 1
32 -1 23 -4z m810 0 c-10 -2 -26 -2 -35 0 -10 3 -2 5 17 5 19 0 27 -2 18 -5z
m-885 -10 c-7 -2 -21 -2 -30 0 -10 3 -4 5 12 5 17 0 24 -2 18 -5z m950 0 c-7
-2 -21 -2 -30 0 -10 3 -4 5 12 5 17 0 24 -2 18 -5z m-1010 -10 c-7 -2 -19 -2
-25 0 -7 3 -2 5 12 5 14 0 19 -2 13 -5z m1060 0 c-7 -2 -19 -2 -25 0 -7 3 -2
5 12 5 14 0 19 -2 13 -5z m-1116 -9 c-3 -3 -12 -4 -19 -1 -8 3 -5 6 6 6 11 1
17 -2 13 -5z m1166 -1 c-7 -2 -19 -2 -25 0 -7 3 -2 5 12 5 14 0 19 -2 13 -5z
m-1248 -19 c-27 -7 -54 -13 -60 -13 -17 2 69 27 90 27 11 0 -2 -6 -30 -14z
m1292 10 c-3 -3 -12 -4 -19 -1 -8 3 -5 6 6 6 11 1 17 -2 13 -5z m40 -10 c-3
-3 -12 -4 -19 -1 -8 3 -5 6 6 6 11 1 17 -2 13 -5z m40 -10 c-3 -3 -12 -4 -19
-1 -8 3 -5 6 6 6 11 1 17 -2 13 -5z m-1450 -10 c-3 -3 -12 -4 -19 -1 -8 3 -5
6 6 6 11 1 17 -2 13 -5z m1523 -9 c19 -7 28 -13 20 -13 -8 0 -31 6 -50 13 -19
7 -28 13 -20 13 8 0 31 -6 50 -13z m-1575 -5 c-11 -5 -27 -9 -35 -9 -9 0 -8 4
5 9 11 5 27 9 35 9 9 0 8 -4 -5 -9z m-170 -54 c-49 -18 -108 -40 -129 -50 -22
-9 -41 -14 -43 -12 -2 2 42 22 99 44 133 51 130 50 148 51 8 0 -25 -15 -75
-33z m1885 14 c18 -12 2 -12 -25 0 -13 6 -15 9 -5 9 8 0 22 -4 30 -9z m50 -20
c8 -5 11 -10 5 -10 -5 0 -17 5 -25 10 -8 5 -10 10 -5 10 6 0 17 -5 25 -10z
m80 -32 c10 -6 7 -7 -10 -2 -14 3 -32 11 -40 16 -10 6 -7 7 10 2 14 -3 32 -11
40 -16z m70 -28 c19 -11 31 -19 25 -19 -5 0 -26 8 -45 19 -19 11 -30 19 -25
19 6 0 26 -8 45 -19z m-2310 -25 c-25 -13 -49 -24 -55 -24 -5 0 10 11 35 24
25 13 50 24 55 24 6 0 -10 -11 -35 -24z m2460 -45 c55 -28 100 -52 100 -55 0
-5 -199 92 -209 101 -14 13 21 -2 109 -46z m-2531 16 c-10 -9 -69 -36 -69 -32
0 7 52 35 64 36 5 0 7 -2 5 -4z m-79 -40 c0 -2 -35 -23 -77 -46 -203 -109
-453 -300 -643 -490 -146 -146 -232 -251 -338 -410 -79 -121 -111 -163 -72
-95 186 319 511 653 864 889 89 59 251 155 264 156 1 0 2 -2 2 -4z m2905 -149
c301 -200 589 -486 794 -787 65 -96 74 -110 68 -110 -2 0 -26 33 -52 73 -226
340 -547 654 -885 862 -52 32 -99 63 -105 69 -18 17 88 -46 180 -107z m-1497
-104 c-26 -2 -71 -2 -100 0 -29 2 -8 3 47 3 55 0 79 -1 53 -3z m-225 -10 c-13
-2 -35 -2 -50 0 -16 2 -5 4 22 4 28 0 40 -2 28 -4z m385 0 c-16 -2 -40 -2 -55
0 -16 2 -3 4 27 4 30 0 43 -2 28 -4z m-500 -10 c-10 -2 -28 -2 -40 0 -13 2 -5
4 17 4 22 1 32 -1 23 -4z m605 0 c-13 -2 -33 -2 -45 0 -13 2 -3 4 22 4 25 0
35 -2 23 -4z m-680 -10 c-7 -2 -21 -2 -30 0 -10 3 -4 5 12 5 17 0 24 -2 18 -5z
m740 0 c-7 -2 -19 -2 -25 0 -7 3 -2 5 12 5 14 0 19 -2 13 -5z m-810 -10 c-7
-2 -19 -2 -25 0 -7 3 -2 5 12 5 14 0 19 -2 13 -5z m897 -3 c20 -6 21 -8 5 -8
-11 0 -33 4 -50 8 -27 7 -27 8 -5 8 14 0 36 -4 50 -8z m-960 -10 c-14 -4 -34
-8 -45 -8 -16 0 -15 2 5 8 14 4 34 8 45 8 16 0 15 -2 -5 -8z m1017 -6 c-3 -3
-12 -4 -19 -1 -8 3 -5 6 6 6 11 1 17 -2 13 -5z m-1107 -14 c-34 -11 -60 -11
-35 0 11 5 29 8 40 8 16 0 15 -2 -5 -8z m1147 4 c-3 -3 -12 -4 -19 -1 -8 3 -5
6 6 6 11 1 17 -2 13 -5z m106 -30 c43 -14 77 -28 74 -30 -2 -2 -41 9 -88 25
-46 16 -80 30 -74 30 5 1 45 -11 88 -25z m-1392 -15 c-47 -16 -86 -27 -88 -25
-5 5 137 54 157 54 8 0 -23 -13 -69 -29z m1540 -40 c27 -12 48 -23 46 -25 -2
-3 -28 7 -58 20 -66 31 -57 34 12 5z m-1651 1 c-8 -5 -19 -10 -25 -10 -5 0 -3
5 5 10 8 5 20 10 25 10 6 0 3 -5 -5 -10z m-80 -35 c-14 -8 -29 -14 -35 -14 -5
0 1 6 15 14 14 8 30 14 35 14 6 0 -1 -6 -15 -14z m1826 -11 c18 -14 18 -14 -6
-3 -31 14 -36 19 -24 19 6 0 19 -7 30 -16z m-1897 -18 c-10 -9 -69 -36 -69
-32 0 7 52 35 64 36 5 0 7 -2 5 -4z m2062 -67 c349 -200 605 -441 832 -784 54
-83 157 -274 157 -292 0 -5 -29 46 -63 112 -110 211 -249 398 -432 580 -164
165 -305 269 -533 396 -58 32 -102 59 -96 59 6 0 66 -32 135 -71z m-2161 16
c0 -2 -13 -11 -30 -20 -38 -19 -40 -11 -2 9 31 17 32 18 32 11z m-71 -39 c-18
-16 -229 -153 -224 -146 7 11 213 150 222 150 4 0 4 -2 2 -4z m741 -214 l255
-139 3 -300 2 -301 -360 -266 c-199 -146 -365 -266 -371 -266 -14 0 -546 268
-553 278 -3 5 -8 152 -12 328 l-7 320 64 58 c92 84 246 198 358 264 109 64
341 173 356 168 6 -2 125 -67 265 -144z m1214 80 c220 -107 375 -210 525 -348
l71 -66 0 -256 c0 -142 -3 -293 -6 -338 l-7 -81 -271 -135 -271 -136 -217 162
c-118 88 -284 211 -366 271 l-151 110 -1 301 0 302 263 140 c144 78 268 141
276 141 8 1 77 -30 155 -67z m-2215 -45 c-14 -12 -65 -55 -113 -96 -138 -118
-314 -319 -415 -474 -24 -37 -45 -67 -48 -67 -11 0 80 133 162 235 104 131
215 245 329 341 56 46 103 84 106 84 3 -1 -7 -11 -21 -23z m3909 -437 c24 -44
41 -80 39 -80 -3 0 -24 35 -48 78 -23 42 -49 88 -57 102 l-14 25 18 -22 c11
-13 38 -59 62 -103z m-5055 -25 c-32 -63 -59 -113 -61 -111 -4 5 106 226 113
226 3 0 -21 -52 -52 -115z m5146 -160 c0 -5 -11 10 -24 35 -13 25 -24 50 -24
55 0 6 11 -10 24 -35 13 -25 24 -49 24 -55z m-5246 -58 c-14 -37 -28 -65 -30
-63 -2 2 8 34 23 70 14 37 28 65 30 63 2 -2 -8 -33 -23 -70z m594 -106 c-40
-77 -73 -138 -75 -136 -6 6 134 275 143 275 2 0 -29 -63 -68 -139z m4683 94
c0 -5 -5 -3 -10 5 -5 8 -10 20 -10 25 0 6 5 3 10 -5 5 -8 10 -19 10 -25z m20
-50 c0 -5 -5 -3 -10 5 -5 8 -10 20 -10 25 0 6 5 3 10 -5 5 -8 10 -19 10 -25z
m24 -65 c5 -17 4 -20 -2 -10 -5 8 -13 26 -16 40 -5 17 -4 20 2 10 5 -8 13 -26
16 -40z m-5388 -56 c-14 -38 -25 -64 -25 -58 -1 15 40 136 45 131 2 -2 -7 -35
-20 -73z m4823 -79 c0 -5 -6 1 -14 15 -8 14 -14 30 -14 35 0 6 6 -1 14 -15 8
-14 14 -29 14 -35z m619 -35 c0 -8 -6 1 -13 20 -7 19 -13 42 -13 50 0 8 6 -1
13 -20 7 -19 13 -42 13 -50z m-5474 6 c-3 -15 -8 -25 -11 -23 -2 3 -1 17 3 31
3 15 8 25 11 23 2 -3 1 -17 -3 -31z m607 7 c-12 -20 -14 -14 -5 12 4 9 9 14
11 11 3 -2 0 -13 -6 -23z m4269 -28 c0 -5 -5 -3 -10 5 -5 8 -10 20 -10 25 0 6
5 3 10 -5 5 -8 10 -19 10 -25z m-4315 -96 c-19 -52 -34 -89 -35 -82 0 16 61
185 66 180 2 -2 -12 -46 -31 -98z m4922 69 c-3 -8 -6 -5 -6 6 -1 11 2 17 5 13
3 -3 4 -12 1 -19z m-5509 -46 c-6 -29 -13 -50 -16 -47 -2 2 1 27 8 55 7 28 14
49 16 47 3 -2 -1 -27 -8 -55z m4937 -22 c14 -40 25 -78 24 -84 0 -10 -35 82
-54 146 -17 55 7 5 30 -62z m594 0 c0 -9 -4 -8 -9 5 -5 11 -9 27 -9 35 0 9 4
8 9 -5 5 -11 9 -27 9 -35z m8 -42 c-3 -8 -6 -5 -6 6 -1 11 2 17 5 13 3 -3 4
-12 1 -19z m-5566 -44 c-5 -21 -9 -30 -10 -19 -1 24 10 67 15 62 3 -2 0 -22
-5 -43z m5576 -6 c-3 -7 -5 -2 -5 12 0 14 2 19 5 13 2 -7 2 -19 0 -25z m-5000
-30 c-3 -8 -6 -5 -6 6 -1 11 2 17 5 13 3 -3 4 -12 1 -19z m4441 -73 c0 -11 -6
3 -14 30 -7 28 -13 55 -13 60 2 17 27 -69 27 -90z m569 63 c-3 -8 -6 -5 -6 6
-1 11 2 17 5 13 3 -3 4 -12 1 -19z m-5600 -30 c-3 -7 -5 -2 -5 12 0 14 2 19 5
13 2 -7 2 -19 0 -25z m577 -12 c-3 -15 -8 -25 -11 -23 -2 3 -1 17 3 31 3 15 8
25 11 23 2 -3 1 -17 -3 -31z m5033 -18 c-3 -7 -5 -2 -5 12 0 14 2 19 5 13 2
-7 2 -19 0 -25z m-5620 -20 c-3 -7 -5 -2 -5 12 0 14 2 19 5 13 2 -7 2 -19 0
-25z m1862 -254 c2 -2 23 -90 47 -196 45 -199 128 -509 164 -612 11 -33 20
-65 20 -72 0 -7 -91 -110 -202 -231 -153 -166 -206 -217 -222 -215 -44 5 -588
116 -627 128 -22 6 -108 194 -152 329 -59 182 -88 352 -102 590 l-7 111 274
221 273 221 265 -135 c146 -75 267 -137 269 -139z m2701 66 c137 -110 252
-206 257 -213 19 -31 -13 -357 -53 -536 -34 -153 -85 -303 -143 -426 l-47
-100 -319 -57 c-258 -47 -321 -56 -333 -45 -8 6 -100 106 -205 221 -148 163
-188 213 -184 230 2 11 27 96 55 187 47 154 108 392 150 584 l17 80 270 137
c149 75 274 137 278 137 4 1 120 -89 257 -199z m-3993 158 c-3 -7 -5 -2 -5 12
0 14 2 19 5 13 2 -7 2 -19 0 -25z m4480 0 c-3 -8 -6 -5 -6 6 -1 11 2 17 5 13
3 -3 4 -12 1 -19z m580 -10 c-3 -7 -5 -2 -5 12 0 14 2 19 5 13 2 -7 2 -19 0
-25z m-5640 -25 c-3 -10 -5 -4 -5 12 0 17 2 24 5 18 2 -7 2 -21 0 -30z m570
-15 c-3 -7 -5 -2 -5 12 0 14 2 19 5 13 2 -7 2 -19 0 -25z m4500 -20 c-2 -13
-4 -5 -4 17 -1 22 1 32 4 23 2 -10 2 -28 0 -40z m580 -30 c-2 -13 -4 -3 -4 22
0 25 2 35 4 23 2 -13 2 -33 0 -45z m-5660 -10 c-2 -13 -4 -5 -4 17 -1 22 1 32
4 23 2 -10 2 -28 0 -40z m570 -5 c-3 -10 -5 -4 -5 12 0 17 2 24 5 18 2 -7 2
-21 0 -30z m4520 -65 c-2 -13 -4 -3 -4 22 0 25 2 35 4 23 2 -13 2 -33 0 -45z
m580 -15 c-2 -16 -4 -5 -4 22 0 28 2 40 4 28 2 -13 2 -35 0 -50z m-5680 -30
c-2 -16 -4 -3 -4 27 0 30 2 43 4 28 2 -16 2 -40 0 -55z m570 -360 c-1 -76 -3
-14 -3 137 0 151 2 213 3 138 2 -76 2 -200 0 -275z m4540 295 c-2 -13 -4 -3
-4 22 0 25 2 35 4 23 2 -13 2 -33 0 -45z m580 -210 c-1 -46 -3 -11 -3 77 0 88
2 125 3 83 2 -42 2 -114 0 -160z m-5700 45 c-2 -27 -3 -5 -3 47 0 52 1 74 3
48 2 -27 2 -69 0 -95z m5130 -85 c-1 -40 -3 -8 -3 72 0 80 2 112 3 73 2 -40 2
-106 0 -145z m-5120 -115 c-2 -21 -4 -6 -4 32 0 39 2 55 4 38 2 -18 2 -50 0
-70z m5680 -50 c-2 -16 -4 -5 -4 22 0 28 2 40 4 28 2 -13 2 -35 0 -50z m-570
-5 c-2 -13 -4 -5 -4 17 -1 22 1 32 4 23 2 -10 2 -28 0 -40z m-5100 -55 c-3
-10 -5 -2 -5 17 0 19 2 27 5 18 2 -10 2 -26 0 -35z m5090 -25 c-3 -7 -5 -2 -5
12 0 14 2 19 5 13 2 -7 2 -19 0 -25z m570 -15 c-3 -10 -5 -2 -5 17 0 19 2 27
5 18 2 -10 2 -26 0 -35z m-5090 0 c-3 -10 -5 -4 -5 12 0 17 2 24 5 18 2 -7 2
-21 0 -30z m-560 -40 c-3 -10 -5 -2 -5 17 0 19 2 27 5 18 2 -10 2 -26 0 -35z
m5070 -5 c-3 -7 -5 -2 -5 12 0 14 2 19 5 13 2 -7 2 -19 0 -25z m570 -25 c-3
-10 -5 -2 -5 17 0 19 2 27 5 18 2 -10 2 -26 0 -35z m-5070 0 c-3 -10 -5 -4 -5
12 0 17 2 24 5 18 2 -7 2 -21 0 -30z m-560 -35 c-3 -7 -5 -2 -5 12 0 14 2 19
5 13 2 -7 2 -19 0 -25z m5050 0 c-3 -7 -5 -2 -5 12 0 14 2 19 5 13 2 -7 2 -19
0 -25z m-4480 -20 c-3 -7 -5 -2 -5 12 0 14 2 19 5 13 2 -7 2 -19 0 -25z m5050
0 c-3 -7 -5 -2 -5 12 0 14 2 19 5 13 2 -7 2 -19 0 -25z m-5610 -30 c-3 -7 -5
-2 -5 12 0 14 2 19 5 13 2 -7 2 -19 0 -25z m5030 10 c-3 -8 -6 -5 -6 6 -1 11
2 17 5 13 3 -3 4 -12 1 -19z m-4460 -30 c-3 -7 -5 -2 -5 12 0 14 2 19 5 13 2
-7 2 -19 0 -25z m5030 0 c-3 -7 -5 -2 -5 12 0 14 2 19 5 13 2 -7 2 -19 0 -25z
m-580 -10 c-3 -8 -6 -5 -6 6 -1 11 2 17 5 13 3 -3 4 -12 1 -19z m-5010 -20
c-3 -7 -5 -2 -5 12 0 14 2 19 5 13 2 -7 2 -19 0 -25z m570 -10 c-3 -8 -6 -5
-6 6 -1 11 2 17 5 13 3 -3 4 -12 1 -19z m5007 -22 c-3 -21 -8 -35 -11 -32 -2
2 -1 20 3 40 3 21 8 35 11 32 2 -2 1 -20 -3 -40z m-577 12 c-3 -8 -6 -5 -6 6
-1 11 2 17 5 13 3 -3 4 -12 1 -19z m-4990 -30 c-3 -7 -5 -2 -5 12 0 14 2 19 5
13 2 -7 2 -19 0 -25z m4980 -10 c-3 -8 -6 -5 -6 6 -1 11 2 17 5 13 3 -3 4 -12
1 -19z m-4970 -30 c-3 -8 -6 -5 -6 6 -1 11 2 17 5 13 3 -3 4 -12 1 -19z m582
-28 c0 -9 -4 -8 -9 5 -5 11 -9 27 -9 35 0 9 4 8 9 -5 5 -11 9 -27 9 -35z
m4375 6 c-3 -15 -8 -25 -11 -23 -2 3 -1 17 3 31 3 15 8 25 11 23 2 -3 1 -17
-3 -31z m583 12 c-3 -8 -6 -5 -6 6 -1 11 2 17 5 13 3 -3 4 -12 1 -19z m-5530
-30 c-3 -8 -6 -5 -6 6 -1 11 2 17 5 13 3 -3 4 -12 1 -19z m5517 -22 c-3 -15
-8 -25 -11 -23 -2 3 -1 17 3 31 3 15 8 25 11 23 2 -3 1 -17 -3 -31z m-4887
-143 c-5 -4 -47 105 -47 120 1 7 12 -17 26 -52 13 -35 23 -66 21 -68z m-610
95 c-3 -8 -6 -5 -6 6 -1 11 2 17 5 13 3 -3 4 -12 1 -19z m4883 -45 c-11 -17
-11 -17 -6 0 3 10 6 24 7 30 0 9 2 9 5 0 3 -7 0 -20 -6 -30z m570 -48 c-12
-36 -24 -65 -26 -63 -2 2 6 34 18 71 12 36 24 65 26 62 2 -2 -6 -34 -18 -70z
m-5412 -30 c0 -5 -6 4 -13 20 -8 17 -14 37 -14 45 0 8 7 -1 14 -20 7 -19 13
-39 13 -45z m4823 28 c-12 -20 -14 -14 -5 12 4 9 9 14 11 11 3 -2 0 -13 -6
-23z m-1386 -198 l196 -215 -19 -37 c-11 -21 -75 -171 -142 -333 -68 -162
-128 -300 -134 -307 -13 -15 -167 -56 -291 -79 -122 -22 -451 -30 -585 -15
-126 15 -306 52 -374 78 -47 17 -50 21 -73 83 -13 36 -74 185 -135 332 l-111
267 134 147 c74 81 161 178 194 215 l60 67 290 -4 c160 -3 382 -1 495 4 113 5
226 10 252 10 l47 2 196 -215z m-2836 130 c0 -5 -6 1 -14 15 -8 14 -14 30 -14
35 0 6 6 -1 14 -15 8 -14 14 -29 14 -35z m4153 -90 c-34 -69 -63 -125 -66
-125 -2 0 23 58 57 129 34 71 64 128 66 126 2 -2 -24 -61 -57 -130z m-4718 35
c5 -17 4 -20 -2 -10 -5 8 -13 26 -16 40 -5 17 -4 20 2 10 5 -8 13 -26 16 -40z
m600 -17 c9 -18 14 -33 12 -33 -6 0 -36 55 -36 66 0 11 5 3 24 -33z m4727 10
c-12 -20 -14 -14 -5 12 4 9 9 14 11 11 3 -2 0 -13 -6 -23z m-5301 -58 c0 -5
-5 -3 -10 5 -5 8 -10 20 -10 25 0 6 5 3 10 -5 5 -8 10 -19 10 -25z m5281 8
c-12 -20 -14 -14 -5 12 4 9 9 14 11 11 3 -2 0 -13 -6 -23z m-4620 -113 c163
-272 418 -549 692 -753 93 -69 115 -87 87 -72 -101 56 -385 305 -507 443 -128
145 -271 346 -322 453 -26 53 -16 40 50 -71z m-641 55 c0 -5 -5 -3 -10 5 -5 8
-10 20 -10 25 0 6 5 3 10 -5 5 -8 10 -19 10 -25z m5236 -2 c-8 -15 -15 -25
-16 -21 0 12 23 58 27 54 3 -2 -2 -17 -11 -33z m-5207 -68 c0 -5 -6 1 -14 15
-8 14 -14 30 -14 35 0 6 6 -1 14 -15 8 -14 14 -29 14 -35z m5177 -2 c-8 -15
-15 -25 -16 -21 0 12 23 58 27 54 3 -2 -2 -17 -11 -33z m-631 -30 c-36 -63
-156 -234 -213 -303 -69 -84 -209 -224 -292 -294 -82 -68 -180 -140 -180 -133
0 3 42 35 93 73 187 138 443 423 569 636 22 38 42 68 45 68 3 0 -7 -21 -22
-47z m-4486 -98 c0 -5 -11 10 -24 35 -13 25 -24 50 -24 55 0 6 11 -10 24 -35
13 -25 24 -49 24 -55z m5047 -21 c-25 -49 -45 -86 -45 -82 -1 11 83 178 87
174 2 -2 -17 -44 -42 -92z m-4992 -91 c9 -18 14 -33 12 -33 -6 0 -36 55 -36
66 0 11 5 3 24 -33z m4916 -63 c-17 -33 -33 -60 -35 -60 -3 0 8 27 25 60 17
33 33 60 35 60 3 0 -8 -27 -25 -60z m-4840 -80 c17 -33 28 -60 25 -60 -2 0
-18 27 -35 60 -17 33 -28 60 -25 60 2 0 18 -27 35 -60z m4775 -40 c-9 -16 -18
-30 -21 -30 -2 0 2 14 11 30 9 17 18 30 21 30 2 0 -2 -13 -11 -30z m-4695
-105 c18 -33 28 -55 23 -50 -6 6 -26 37 -44 70 -18 33 -28 56 -22 50 5 -5 25
-37 43 -70z m4659 43 c-33 -63 -101 -178 -106 -178 -3 0 6 19 20 43 13 23 39
68 57 100 30 54 54 83 29 35z m-4590 -163 c13 -22 15 -31 6 -20 -18 22 -53 86
-38 70 6 -5 20 -28 32 -50z m4471 -45 c-6 -11 -13 -20 -16 -20 -2 0 0 9 6 20
6 11 13 20 16 20 2 0 0 -9 -6 -20z m-4411 -55 c13 -22 15 -31 6 -20 -18 22
-53 86 -38 70 6 -5 20 -28 32 -50z m4382 8 c-5 -10 -17 -27 -26 -38 -16 -19
-17 -19 -3 5 26 46 29 50 34 50 3 0 0 -8 -5 -17z m-951 -43 c-28 -21 -109 -67
-99 -56 9 10 113 75 119 76 3 0 -6 -9 -20 -20z m-3363 -72 c53 -85 55 -88 49
-88 -2 0 -19 24 -37 53 -17 28 -38 62 -47 75 -8 12 -12 22 -9 22 3 0 23 -28
44 -62z m4263 32 c-6 -11 -13 -20 -16 -20 -2 0 0 9 6 20 6 11 13 20 16 20 2 0
0 -9 -6 -20z m-3136 -92 c61 -31 107 -58 102 -58 -14 0 -239 119 -266 142 -21
17 -18 16 14 -3 21 -12 89 -49 150 -81z m2106 57 c0 -2 -18 -14 -40 -25 -22
-11 -40 -18 -40 -15 0 2 17 13 38 24 42 23 42 23 42 16z m1000 -15 c-6 -11
-13 -20 -16 -20 -2 0 0 9 6 20 6 11 13 20 16 20 2 0 0 -9 -6 -20z m-36 -58
c-9 -16 -25 -39 -36 -53 l-20 -24 16 28 c28 48 48 77 53 77 2 0 -3 -13 -13
-28z m-1094 4 c0 -2 -7 -7 -16 -10 -8 -3 -12 -2 -9 4 6 10 25 14 25 6z m-70
-36 c-19 -11 -39 -19 -45 -19 -5 0 6 8 25 19 19 11 40 19 45 19 6 0 -6 -8 -25
-19z m-2939 -45 l10 -20 -16 20 c-9 11 -21 29 -26 40 l-10 20 16 -20 c9 -11
21 -29 26 -40z m1179 25 c8 -5 11 -10 5 -10 -5 0 -17 5 -25 10 -8 5 -10 10 -5
10 6 0 17 -5 25 -10z m1680 -14 c-14 -7 -36 -16 -50 -20 -14 -3 -7 3 15 13 45
22 73 27 35 7z m-1530 -41 c69 -24 120 -44 114 -44 -14 -1 -208 64 -231 78
-29 17 -16 13 117 -34z m1440 5 c-8 -5 -22 -9 -30 -9 -10 0 -8 3 5 9 27 12 43
12 25 0z m-2668 -130 c92 -143 90 -140 85 -140 -4 0 -151 223 -172 260 -24 44
21 -18 87 -120z m2608 110 c-8 -5 -22 -9 -30 -9 -10 0 -8 3 5 9 27 12 43 12
25 0z m1314 -2 c-27 -45 -185 -278 -189 -278 -3 0 38 65 92 145 53 80 98 145
100 145 2 0 1 -6 -3 -12z m-1379 -18 c-11 -5 -27 -9 -35 -9 -9 0 -8 4 5 9 11
5 27 9 35 9 9 0 8 -4 -5 -9z m-1105 -25 c30 -7 46 -14 35 -14 -11 0 -42 6 -70
13 -65 18 -37 19 35 1z m1035 5 c-11 -5 -29 -8 -40 -8 -16 0 -15 2 5 8 34 11
60 11 35 0z m-68 -16 c-3 -3 -12 -4 -19 -1 -8 3 -5 6 6 6 11 1 17 -2 13 -5z
m-874 -11 c-7 -2 -19 -2 -25 0 -7 3 -2 5 12 5 14 0 19 -2 13 -5z m824 1 c-3
-3 -12 -4 -19 -1 -8 3 -5 6 6 6 11 1 17 -2 13 -5z m-764 -11 c-7 -2 -21 -2
-30 0 -10 3 -4 5 12 5 17 0 24 -2 18 -5z m692 -4 c-22 -4 -53 -7 -70 -7 -26 1
-24 2 10 8 22 4 54 7 70 7 25 1 23 -1 -10 -8z m-627 -6 c-10 -2 -26 -2 -35 0
-10 3 -2 5 17 5 19 0 27 -2 18 -5z m105 -10 c-13 -2 -35 -2 -50 0 -16 2 -5 4
22 4 28 0 40 -2 28 -4z m395 0 c-16 -2 -40 -2 -55 0 -16 2 -3 4 27 4 30 0 43
-2 28 -4z m-160 -10 c-32 -2 -86 -2 -120 0 -35 2 -9 3 57 3 66 0 94 -1 63 -3z
m-1838 -243 c33 -49 58 -90 56 -90 -3 0 -33 41 -66 90 -33 50 -58 90 -56 90 3
0 33 -40 66 -90z m3563 47 c-30 -48 -115 -167 -119 -167 -3 0 23 41 57 90 33
50 63 90 66 90 2 0 0 -6 -4 -13z m-3364 -334 c60 -87 182 -259 270 -383 212
-298 267 -378 249 -360 -29 28 -643 900 -634 900 2 0 54 -71 115 -157z m3191
82 c-17 -25 -33 -45 -36 -45 -3 0 9 20 26 45 17 25 33 45 36 45 3 0 -9 -20
-26 -45z m-70 -100 c-17 -25 -33 -45 -36 -45 -3 0 9 20 26 45 17 25 33 45 36
45 3 0 -9 -20 -26 -45z m-95 -137 c-32 -46 -64 -90 -73 -98 -16 -16 6 18 76
118 24 34 46 62 49 62 2 0 -21 -37 -52 -82z m-138 -195 c-18 -27 -111 -157
-206 -290 -95 -134 -175 -243 -178 -243 -2 0 11 21 30 48 18 26 111 156 206
290 95 133 175 242 178 242 2 0 -11 -21 -30 -47z m-2206 -610 c78 -109 157
-219 176 -245 19 -27 32 -48 30 -48 -3 0 -74 96 -158 213 -84 116 -163 227
-177 245 -13 17 -22 32 -19 32 3 0 70 -89 148 -197z m1789 23 c-16 -25 -36
-48 -43 -52 -6 -5 1 10 17 32 44 60 48 64 53 64 2 0 -10 -20 -27 -44z m-91
-127 c-24 -33 -47 -63 -53 -67 -6 -3 1 10 15 29 14 18 35 49 48 67 12 17 25
32 27 32 3 0 -14 -27 -37 -61z m-89 -124 c-17 -25 -33 -45 -36 -45 -3 0 9 20
26 45 17 25 33 45 36 45 3 0 -9 -20 -26 -45z m-48 -67 c-5 -7 -58 -80 -117
-163 -59 -82 -114 -157 -123 -165 -19 -18 -23 -24 73 110 131 183 167 230 172
230 3 0 1 -6 -5 -12z m-1196 -215 c81 -115 151 -214 157 -220 5 -7 7 -13 4
-13 -3 0 -60 78 -128 173 -67 94 -138 193 -156 220 -19 26 -32 47 -29 47 2 0
71 -93 152 -207z m912 -179 c-38 -53 -63 -74 -28 -23 28 40 51 69 57 69 2 0
-11 -21 -29 -46z m-84 -116 c-44 -62 -78 -99 -44 -48 37 54 72 100 77 100 3 0
-12 -24 -33 -52z m-584 -50 c24 -35 36 -56 28 -48 -23 23 -94 125 -82 118 6
-4 30 -35 54 -70z m90 -124 c18 -26 29 -45 24 -42 -5 4 -25 28 -44 54 -18 26
-29 45 -24 42 5 -4 25 -28 44 -54z m340 -49 c-39 -58 -73 -105 -75 -105 -3 0
26 47 65 105 39 58 73 105 75 105 3 0 -26 -47 -65 -105z m-227 -105 l74 -100
27 32 27 33 -23 -37 c-13 -21 -26 -38 -29 -38 -4 0 -30 33 -59 73 -29 39 -64
87 -78 105 -13 17 -22 32 -19 32 4 0 40 -45 80 -100z"/>
</g>
</svg>
